<svg id="Layer_2" data-name="Layer 2" xmlns="http://www.w3.org/2000/svg" viewBox="0 0 434.57 467.26"><defs><style>.cls-1{fill:none;stroke:#e2e2e2;stroke-linecap:round;stroke-miterlimit:10;stroke-width:30px;}.cls-2{fill:#e2e2e2;}</style></defs><path class="cls-1" d="M388.7,474.63H44.51a5,5,0,0,1-5-5V42.37a5,5,0,0,1,5-5H388.7" transform="translate(-24.51 -22.37)"/><path class="cls-2" d="M438.66,241H109.13a15,15,0,0,0,0,30h292.2l-64.2,64.2a15,15,0,0,0,21.21,21.22L459.09,255.67C452.09,251.07,445.54,245.8,438.66,241Z" transform="translate(-24.51 -22.37)"/><path class="cls-2" d="M457.47,254.7l-99.13-99.13a15,15,0,0,0-21.21,21.21l64.2,64.2H109.13a15,15,0,1,0,0,30H443.35C448,265.51,452.73,260.09,457.47,254.7Z" transform="translate(-24.51 -22.37)"/></svg>