<svg id="Layer_1" data-name="Layer 1" xmlns="http://www.w3.org/2000/svg" viewBox="0 0 1030.57 1051.79"><defs><style>.cls-1{fill:#21a3c9;}.cls-2{fill:#15749e;}</style></defs><path class="cls-1" d="M1030.83,178.75a285,285,0,0,0-65-86q-40.5-36.58-95.57-57.59t-117.74-21H327.47q-62.73,0-117.74,21T114.16,92.7a285,285,0,0,0-65,86.05,233.77,233.77,0,0,0-24.45,105V668.6A229.55,229.55,0,0,0,49.17,773a287.69,287.69,0,0,0,65,85.36q40.5,36.59,95.57,57.6t117.74,21H336a55.6,55.6,0,0,1-1.45-12.32c-.32-41.78,16.22-77.4,19.19-119.06-4.14-6.92-3.84-18.5-4.72-26.39-35.22,0-84.46-14.2-104.84-36.68q-31.37-34.56-31.34-83.34V291.89q0-48.78,31.34-82.65T329,175.36H751q53.54,0,84.86,33.88t31.34,82.65V659.12q0,48.78-31.34,83.34T751,777H504.67l-45.08,75.84c.37,23.89,1.48,47.81,1.66,71.74A55.8,55.8,0,0,1,460,936.91H752.53q62.73,0,117.74-21t95.57-57.6a287.69,287.69,0,0,0,65-85.36,229.55,229.55,0,0,0,24.45-104.35V283.77A233.77,233.77,0,0,0,1030.83,178.75Z" transform="translate(-24.72 -14.11)"/><line class="cls-2" x1="149.82" y1="725.33" x2="149.82" y2="757.92"/><circle class="cls-1" cx="663.14" cy="375.12" r="64.19"/><circle class="cls-1" cx="367.43" cy="375.12" r="64.19"/><polygon class="cls-1" points="389.11 1051.79 171.87 835.49 323.73 765.03 389.01 845.97 478.66 762.9 607.66 864.67 389.11 1051.79"/></svg>