<svg id="Layer_1" data-name="Layer 1" xmlns="http://www.w3.org/2000/svg" viewBox="0 0 450 512"><defs><style>.cls-1{fill:#e2e2e2;}</style></defs><path class="cls-1" d="M256,0C181.56,0,121,60.56,121,135s60.56,135,135,135,135-60.56,135-135S330.44,0,256,0Zm0,240A105,105,0,1,1,361,135,105.12,105.12,0,0,1,256,240Z" transform="translate(-31)"/><path class="cls-1" d="M424,358.2C387,320.67,338,300,286,300H226c-52,0-101,20.67-138,58.2A196.75,196.75,0,0,0,31,497a15,15,0,0,0,15,15H466a15,15,0,0,0,15-15A196.75,196.75,0,0,0,424,358.2ZM61.66,482C69.18,396.91,140,330,226,330h60c86,0,156.83,66.91,164.34,152Z" transform="translate(-31)"/></svg>