<svg xmlns="http://www.w3.org/2000/svg" xmlns:xlink="http://www.w3.org/1999/xlink" viewBox="0 0 414.68 332.87"><defs><style>.cls-1{isolation:isolate;}.cls-2{fill:#241033;opacity:0.25;mix-blend-mode:multiply;}.cls-3,.cls-56,.cls-65,.cls-66,.cls-7,.cls-82{fill:none;stroke-miterlimit:10;}.cls-3,.cls-7{stroke:#6ea8e3;}.cls-4{fill:#527eab;}.cls-5,.cls-79{fill:#fff;}.cls-6{fill:#6ea8e3;}.cls-7{stroke-width:0.92px;}.cls-8{fill:#b2b5bf;}.cls-9{fill:#0b4fe8;}.cls-10{fill:#4a88ff;}.cls-11{fill:#ed4a08;}.cls-12{fill:#f0b71e;}.cls-13{fill:#f30078;}.cls-14{fill:#96005d;}.cls-15{fill:#121682;}.cls-16{fill:#39b54a;}.cls-17{fill:#41aebe;}.cls-18{fill:#75d2e0;}.cls-19{fill:#2b828f;}.cls-20{fill:#fac230;}.cls-21{fill:#ffda7d;}.cls-22{fill:#b88a14;}.cls-23{fill:#f75852;}.cls-24{fill:#ed7f7c;}.cls-25{fill:#cf4944;}.cls-26{fill:#2e3192;}.cls-27{fill:#1d6cff;}.cls-28{fill:url(#linear-gradient);}.cls-29{fill:#1a1a1a;}.cls-30{fill:#662d91;}.cls-31{fill:#9140cf;}.cls-32{fill:#3d1b57;}.cls-33{fill:#022f86;}.cls-34{fill:#fecc14;}.cls-35{fill:#1b5da0;}.cls-36{fill:#f2222f;}.cls-37{fill:#e6e6e6;}.cls-38{fill:#ccc;}.cls-39{fill:#999;}.cls-40{fill:#1de4ff;}.cls-41{fill:#027686;}.cls-42{fill:#4aeaff;}.cls-43{fill:#5a1591;}.cls-44{fill:#7b16c9;}.cls-45{fill:#9b60c9;}.cls-46{fill:#3acaff;}.cls-47{fill:#7ddcff;}.cls-48{fill:#f0cf76;}.cls-49{fill:url(#linear-gradient-2);}.cls-50{fill:#2972ff;}.cls-51{fill:#f15a24;}.cls-52{fill:#f19a7b;}.cls-53{fill:#a63e19;}.cls-54{fill:#c69c6d;}.cls-55{fill:#fbb03b;}.cls-56{stroke:#fb833b;stroke-width:0.75px;}.cls-57{fill:#f2f2f2;}.cls-58{fill:#ff7bac;}.cls-59{fill:#67912f;}.cls-60{fill:#8cc63f;}.cls-61{fill:#1579b0;}.cls-62{fill:#1ca0e8;}.cls-63{fill:#911116;}.cls-64{fill:#ed1c24;}.cls-65{stroke:#fff;stroke-width:0.45px;}.cls-66,.cls-82{stroke:#ff1d25;}.cls-66{stroke-width:0.17px;}.cls-67{fill:#eee;}.cls-68{fill:#333;}.cls-69{fill:#afafaf;}.cls-70{fill:#e2e2e2;opacity:0.23;}.cls-71{fill:#860207;}.cls-72{fill:#ff1d25;}.cls-73{fill:#ff4a51;}.cls-74{fill:#866102;}.cls-75{fill:#ffbf1d;}.cls-76{fill:#ffcc4a;}.cls-77{fill:#bdccd4;opacity:0.5;}.cls-78{fill:#ff3f48;}.cls-79{opacity:0.1;mix-blend-mode:screen;}.cls-80{fill:#fcd3b7;}.cls-81{fill:#eda36f;}.cls-82{stroke-width:0.09px;}.cls-83{fill:#13041f;}.cls-84{fill:#d94611;}.cls-85{fill:#241404;}.cls-86{fill:#ed1e79;}.cls-87{fill:#251404;}.cls-88{fill:#689c23;}.cls-89{fill:gray;}.cls-90{fill:#666;}</style><linearGradient id="linear-gradient" x1="174.19" y1="88.33" x2="109.69" y2="125.83" gradientUnits="userSpaceOnUse"><stop offset="0.11" stop-color="#1ca0e8"/><stop offset="0.64" stop-color="#1787c3"/><stop offset="0.93" stop-color="#157db3"/></linearGradient><linearGradient id="linear-gradient-2" x1="301.54" y1="97.93" x2="301.21" y2="58.93" xlink:href="#linear-gradient"/></defs><g class="cls-1"><g id="OBJECTS"><polygon class="cls-2" points="76.52 82.73 87.6 76.33 98.68 82.73 87.6 89.12 76.52 82.73"/><polygon class="cls-2" points="98.68 72.72 109.76 66.32 120.84 72.72 109.76 79.11 98.68 72.72"/><polygon class="cls-2" points="120.84 61.25 131.93 54.85 143.01 61.25 131.93 67.65 120.84 61.25"/><path class="cls-2" d="M114.78,314.75l-2.14-3.26a.5.5,0,0,0-.22-.34l-4.88-7.32a1.59,1.59,0,0,0-.15-.21l0-.08v0a1.27,1.27,0,0,0-.27-.25h0L53.2,272h0l-3-1.75h0s-6.28-4.2-9.54,1.4,3.5,9,3.5,9l3,1.75L101,313.69a1.33,1.33,0,0,0,.33.13h0a1.8,1.8,0,0,0,.52,0l8.61.62a.54.54,0,0,0,.4,0Z" transform="translate(-39.78 -100.82)"/><polygon class="cls-2" points="21.11 159.63 176.25 70.06 397.88 198.01 242.74 287.58 21.11 159.63"/><line class="cls-3" x1="287.06" y1="238.36" x2="330.83" y2="263.29"/><line class="cls-3" x1="342.47" y1="206.03" x2="386.24" y2="230.95"/><polygon class="cls-4" points="242.74 276.4 397.88 186.83 397.88 174.04 242.74 263.61 242.74 276.4"/><polygon class="cls-5" points="21.11 135.65 176.25 46.08 397.88 174.04 242.74 263.61 21.11 135.65"/><path class="cls-6" d="M282.51,364.43v12.8l-112-64.66L164.3,309h0l-4.78-2.75-3.51-2L60.89,249.27V236.48l97.62,56.36,16.42,9.48Z" transform="translate(-39.78 -100.82)"/><polygon class="cls-7" points="253.82 116.46 176.25 161.24 231.62 193.21 309.23 148.45 253.82 116.46"/><ellipse class="cls-8" cx="250.6" cy="153.97" rx="26.11" ry="14.25"/><ellipse class="cls-2" cx="336.93" cy="266.62" rx="19.93" ry="11.01"/><path class="cls-9" d="M396.49,358.66v-3.31H394.8c-3.16-3.78-10.06-6.41-18.1-6.41s-14.93,2.63-18.09,6.41h-1.84v5.35h.07c.71,5.73,9.32,10.25,19.86,10.25,11,0,19.94-4.93,19.94-11A6.13,6.13,0,0,0,396.49,358.66Z" transform="translate(-39.78 -100.82)"/><ellipse class="cls-10" cx="336.93" cy="254.01" rx="19.93" ry="11.01"/><ellipse class="cls-2" cx="392.33" cy="234.28" rx="19.93" ry="11.01"/><path class="cls-11" d="M451.9,326.32V323h-1.7c-3.15-3.78-10.06-6.41-18.09-6.41S417.17,319.23,414,323h-1.84v5.36h.07c.71,5.72,9.32,10.25,19.86,10.25,11,0,19.93-4.93,19.93-11A7,7,0,0,0,451.9,326.32Z" transform="translate(-39.78 -100.82)"/><ellipse class="cls-12" cx="392.33" cy="221.68" rx="19.93" ry="11.01"/><polyline class="cls-3" points="290.46 120.89 303.67 113.27 303.67 87.68"/><polygon class="cls-13" points="165.17 52.48 386.77 180.45 397.88 174.04 176.25 46.08 165.17 52.48"/><polygon class="cls-14" points="386.77 180.45 386.83 193.21 397.88 186.83 397.88 174.04 386.77 180.45"/><path class="cls-15" d="M401.67,286.94a2.16,2.16,0,0,0,0-.36v-4.9l-8.82-1.92-39.22-22.64a3.29,3.29,0,0,0-3.27,0l-16.88,9.75-4.68-1v6.39l.1,0a3.23,3.23,0,0,0,1.53,2l34.8,20v6.79a1.48,1.48,0,0,0,1.81,1.44l8.77-2.14,1.07.63a3.27,3.27,0,0,0,3.26,0l19.92-11.47a3.22,3.22,0,0,0,1.59-2.47h0Z" transform="translate(-39.78 -100.82)"/><path class="cls-5" d="M219.82,153.3c0,1.21-1.7,2.2-3.79,2.2s-3.8-1-3.8-2.2,1.7-2.19,3.8-2.19S219.82,152.09,219.82,153.3Z" transform="translate(-39.78 -100.82)"/><ellipse class="cls-12" cx="183.84" cy="56.86" rx="3.8" ry="2.19"/><ellipse class="cls-16" cx="192.18" cy="61.25" rx="3.8" ry="2.19"/><polygon class="cls-17" points="154.09 71.67 165.17 65.28 187.33 78.07 176.25 84.47 154.09 71.67"/><polygon class="cls-18" points="154.09 71.67 154.09 74.87 176.25 87.38 176.25 84.47 154.09 71.67"/><polygon class="cls-19" points="176.25 87.38 187.33 80.8 187.33 78.07 176.25 84.47 176.25 87.38"/><polygon class="cls-20" points="181.79 87.67 192.87 81.27 215.03 94.07 203.95 100.46 181.79 87.67"/><polygon class="cls-21" points="181.79 87.67 181.79 90.87 203.95 103.37 203.95 100.46 181.79 87.67"/><polygon class="cls-22" points="203.95 103.37 215.03 96.79 215.03 94.07 203.95 100.46 203.95 103.37"/><polygon class="cls-23" points="209.49 103.51 220.57 97.11 242.74 109.91 231.66 116.3 209.49 103.51"/><polygon class="cls-24" points="209.49 103.51 209.49 106.71 231.66 119.21 231.66 116.3 209.49 103.51"/><polygon class="cls-25" points="231.66 119.21 242.74 112.64 242.74 109.91 231.66 116.3 231.66 119.21"/><path class="cls-26" d="M400.06,279.22l-46.43-26.81a3.29,3.29,0,0,0-3.27,0l-19.93,11.51a3.27,3.27,0,0,0,0,5.66l34.8,20.05v6.79a1.48,1.48,0,0,0,1.81,1.44l8.77-2.14,1.07.63a3.27,3.27,0,0,0,3.26,0l19.92-11.47A3.27,3.27,0,0,0,400.06,279.22Z" transform="translate(-39.78 -100.82)"/><polygon class="cls-27" points="301.15 165.65 314.58 173.4 324.59 167.06 311.67 159.58 301.15 165.65"/><polygon class="cls-6" points="320.96 172.19 338.59 182.37 340.71 181.05 322.88 170.94 320.96 172.19"/><polygon class="cls-6" points="317.56 174.64 335.19 184.82 337.31 183.51 319.49 173.4 317.56 174.64"/><polygon class="cls-6" points="324.59 169.74 342.22 179.91 344.34 178.6 326.51 168.49 324.59 169.74"/><polygon class="cls-8" points="139.68 80.77 206.17 119 150.76 151.15 84.28 112.76 139.68 80.77"/><polygon class="cls-28" points="139.68 70.06 206.17 108.29 150.76 140.44 84.28 102.05 139.68 70.06"/><ellipse class="cls-29" cx="145.22" cy="103.16" rx="14.31" ry="9.66"/><polygon class="cls-5" points="137.1 104.31 148.29 97.98 150.76 105.25 137.1 104.31"/><polygon class="cls-30" points="276.01 180.45 242.74 199.63 287.06 225.22 320.31 206.03 276.01 180.45"/><polygon class="cls-31" points="242.74 199.63 242.74 202.35 287.06 227.77 287.06 225.22 242.74 199.63"/><polygon class="cls-32" points="287.06 227.77 320.31 208.72 320.31 206.03 287.06 225.22 287.06 227.77"/><polygon class="cls-10" points="84.28 102.05 84.28 105.25 150.76 143.82 150.76 140.44 84.28 102.05"/><polygon class="cls-33" points="150.76 143.82 206.17 111.41 206.17 108.29 150.76 140.44 150.76 143.82"/><polygon class="cls-34" points="170.53 164.53 175.88 167.62 170.53 170.71 165.17 167.62 170.53 164.53"/><polygon class="cls-6" points="171.98 171.56 177.36 168.48 197.3 179.99 191.95 183.08 171.98 171.56"/><polygon class="cls-35" points="207.4 160.27 212.75 163.36 207.4 166.45 202.04 163.36 207.4 160.27"/><polygon class="cls-6" points="208.86 167.29 214.24 164.22 234.18 175.73 228.82 178.82 208.86 167.29"/><polygon class="cls-36" points="199.34 181.08 204.69 184.17 199.34 187.26 193.98 184.17 199.34 181.08"/><polygon class="cls-6" points="200.79 188.1 206.18 185.02 226.12 196.54 220.76 199.63 200.79 188.1"/><polygon class="cls-33" points="37.56 132.61 37.56 115.97 51.97 124.29 51.97 140.93 37.56 132.61"/><polygon class="cls-27" points="51.97 124.29 66.37 115.97 66.37 132.61 51.97 140.93 51.97 124.29"/><polygon class="cls-10" points="37.56 115.97 51.97 107.66 66.37 115.97 51.97 124.29 37.56 115.97"/><polygon class="cls-37" points="48.65 117.47 48.65 103.96 60.34 97.21 60.34 110.71 48.65 117.47"/><polygon class="cls-38" points="46.96 103 48.65 103.96 60.34 97.21 58.66 96.25 46.96 103"/><polygon class="cls-39" points="46.96 103 46.96 116.5 48.65 117.47 48.65 103.96 46.96 103"/><polygon class="cls-40" points="66.37 149.24 66.37 132.61 80.78 140.93 80.78 157.56 66.37 149.24"/><polygon class="cls-41" points="80.78 140.93 95.19 132.61 95.19 149.24 80.78 157.56 80.78 140.93"/><polygon class="cls-42" points="66.37 132.61 80.78 124.29 95.19 132.61 80.78 140.93 66.37 132.61"/><polygon class="cls-37" points="77.46 134.1 77.46 120.6 89.15 113.85 89.15 127.35 77.46 134.1"/><polygon class="cls-38" points="75.78 119.64 77.46 120.6 89.15 113.85 87.47 112.89 75.78 119.64"/><polygon class="cls-39" points="75.78 119.64 75.78 133.14 77.46 134.1 77.46 120.6 75.78 119.64"/><polygon class="cls-43" points="95.19 165.81 95.19 149.18 109.59 157.49 109.59 174.13 95.19 165.81"/><polygon class="cls-44" points="109.59 157.49 124 149.18 124 165.81 109.59 174.13 109.59 157.49"/><polygon class="cls-45" points="95.19 149.18 109.59 140.86 124 149.18 109.59 157.49 95.19 149.18"/><polygon class="cls-37" points="106.27 150.66 106.27 137.16 117.96 130.41 117.96 143.91 106.27 150.66"/><polygon class="cls-38" points="104.59 136.21 106.27 137.16 117.96 130.41 116.28 129.45 104.59 136.21"/><polygon class="cls-39" points="104.59 136.21 104.59 149.71 106.27 150.66 106.27 137.16 104.59 136.21"/><polygon class="cls-9" points="87.6 84.47 76.52 78.07 76.52 65.28 87.6 71.67 87.6 84.47"/><polygon class="cls-46" points="87.6 84.47 98.68 78.07 98.68 65.28 87.6 71.67 87.6 84.47"/><polygon class="cls-47" points="76.52 65.28 87.6 58.88 98.68 65.28 87.6 71.67 76.52 65.28"/><polygon class="cls-11" points="109.76 71.67 98.68 65.28 98.68 39.69 109.76 46.08 109.76 71.67"/><polygon class="cls-12" points="109.76 71.67 120.84 65.28 120.84 39.69 109.76 46.08 109.76 71.67"/><polygon class="cls-48" points="98.68 39.69 109.76 33.29 120.84 39.69 109.76 46.08 98.68 39.69"/><polygon class="cls-43" points="131.93 58.88 120.84 52.48 120.84 14.09 131.93 20.49 131.93 58.88"/><polygon class="cls-44" points="131.93 58.88 143.01 52.48 143.01 14.09 131.93 20.49 131.93 58.88"/><polygon class="cls-45" points="120.84 14.09 131.93 7.7 143.01 14.09 131.93 20.49 120.84 14.09"/><polygon class="cls-49" points="275.98 52.31 320.31 77.9 326.87 86.9 326.87 107.28 287.06 84.3 283.11 86.58 275.98 82.89 275.98 52.31"/><polygon class="cls-10" points="275.98 52.31 278.48 50.85 322.8 76.44 320.31 77.9 275.98 52.31"/><polygon class="cls-50" points="320.31 77.9 326.87 86.9 329.37 85.45 322.8 76.44 320.31 77.9"/><polygon class="cls-33" points="326.87 86.9 326.87 107.28 329.37 105.83 329.37 85.45 326.87 86.9"/><polygon class="cls-51" points="142.97 193.21 242.74 250.81 261.12 240.2 160.59 183.08 142.97 193.21"/><polygon class="cls-52" points="142.97 193.21 143.01 195.56 242.74 253.32 242.74 250.81 142.97 193.21"/><polygon class="cls-53" points="242.74 253.32 261.12 242.59 261.12 240.2 242.74 250.81 242.74 253.32"/><path class="cls-54" d="M115.14,308.43c.41.24.31,1.18-.22,2.1s-1.31,1.47-1.72,1.23-.31-1.18.22-2.1S114.72,308.19,115.14,308.43Z" transform="translate(-39.78 -100.82)"/><polygon class="cls-54" points="64.3 210.28 73.42 210.93 75.36 207.61 70.28 199.99 64.3 210.28"/><polygon class="cls-29" points="73.42 210.93 77.73 211.21 75.36 207.61 73.42 210.93"/><path class="cls-54" d="M109.78,300.59c1.29.75,1,3.68-.69,6.55s-4.07,4.58-5.35,3.83-1-3.68.69-6.55S108.49,299.84,109.78,300.59Z" transform="translate(-39.78 -100.82)"/><rect class="cls-55" x="73.82" y="258.94" width="12.01" height="62.32" transform="translate(-250.82 112.32) rotate(-59.79)"/><polygon class="cls-55" points="66.98 204.96 68.12 209.21 63.96 210.15 66.98 204.96"/><polygon class="cls-55" points="70 199.76 71.14 204.02 66.98 204.96 70 199.76"/><line class="cls-56" x1="67.29" y1="205.13" x2="14.71" y2="174.53"/><path class="cls-57" d="M46.88,277.87l3,1.75c1.29.75,3.68-1,5.35-3.84s2-5.79.69-6.54l-3.26-1.9Z" transform="translate(-39.78 -100.82)"/><path class="cls-54" d="M52.92,267.49c1.29.75,1,3.68-.69,6.55s-4.06,4.58-5.35,3.83-1-3.68.69-6.55S51.63,266.74,52.92,267.49Z" transform="translate(-39.78 -100.82)"/><path class="cls-58" d="M43.38,268.89c-3.25,5.59,3.5,9,3.5,9,1.29.75,3.68-1,5.35-3.83s2-5.8.69-6.55C52.92,267.49,46.64,263.29,43.38,268.89Z" transform="translate(-39.78 -100.82)"/><path class="cls-59" d="M269.53,136.32a31.1,31.1,0,0,0-.95-7.1l4.17-2.74-2-4.61-2-4.6-5,.75a33.1,33.1,0,0,0-4.52-5.68l.16-6.66-3.35-2.08-3.26-2-2.86,1.29,1.13,3,.46-.06-.37,1.25a11.11,11.11,0,0,0-4.75-.53l-3.21-5.76-.36.22.06-.22-2.56,1.3.13.38-1.86,1.13,1.94,6.21a12.83,12.83,0,0,0-2.2,4.12l-4-1.92-2.86,1.29,2.57,2,0,.18-.3,3.39,3.72,3.73a32.17,32.17,0,0,0,1.06,6l-2.63,2.2,1.55,3.67,1.55,3.68,3.5-.14a35,35,0,0,0,3.66,5.11l0,5.18,2.23,1.89-1.24.86,1.65,3.19L251.7,153l1.48-4.07a14.48,14.48,0,0,0,4.65,1.58l2.33,4.27-.36,0,.47.24.76,1.41,1.46-.27,1.12.58,2.87-1.29-2-6.39a9.84,9.84,0,0,0,2.26-2.29l3.25,3,2.86-1.3.85-3.64.88-3.74Zm-8.87-1.17c-1,5.33-5.45,6.6-9.87,3.14-4.25-3.33-7.08-10-6.44-15.18.66-5.35,4.8-7.34,9.38-4.17C258.5,122.23,261.67,129.63,260.66,135.15Z" transform="translate(-39.78 -100.82)"/><path class="cls-60" d="M266.67,137.61a31.66,31.66,0,0,0-.95-7.1l4.17-2.74-2-4.61-2-4.6-5,.75a33.11,33.11,0,0,0-4.52-5.67l.16-6.67-3.35-2.07-3.26-2-1.64,5.52a11.11,11.11,0,0,0-4.75-.53l-3.21-5.75L238,103.55l-2.25,1.38,1.94,6.21a12.48,12.48,0,0,0-2.2,4.11l-4-1.92-.31,3.46-.3,3.4,3.71,3.72a33.13,33.13,0,0,0,1.07,6.05L233,132.15l1.55,3.67,1.55,3.68,3.5-.13a35.48,35.48,0,0,0,3.66,5.1l0,5.19,2.72,2.29,2.79,2.35,1.48-4.06a14.37,14.37,0,0,0,4.65,1.57l3.2,5.88,2.68-.48,2.76-.5-2-6.39a10.08,10.08,0,0,0,3.06-3.54l5.32,3,.85-3.65.88-3.74Zm-18.74,2c-4.26-3.33-7.09-10-6.45-15.18.67-5.35,4.81-7.34,9.39-4.17,4.77,3.29,7.93,10.69,6.92,16.21C256.82,141.77,252.35,143.05,247.93,139.58Z" transform="translate(-39.78 -100.82)"/><path class="cls-61" d="M296.46,134.12a18.67,18.67,0,0,0-.57-4.24l2.5-1.64-1.19-2.75L296,122.74l-3,.45a19.46,19.46,0,0,0-2.71-3.4l.1-4-2-1.24-2-1.21-1.71.78.67,1.82.28,0-.22.74a6.63,6.63,0,0,0-2.84-.31l-1.92-3.44-.21.13,0-.13-1.53.77.08.23-1.11.68,1.16,3.71a7.59,7.59,0,0,0-1.32,2.46l-2.38-1.15-1.71.77,1.53,1.19v.11l-.18,2,2.22,2.22a20.08,20.08,0,0,0,.64,3.62l-1.57,1.31.92,2.19.93,2.2,2.1-.08a20.29,20.29,0,0,0,2.18,3.05l0,3.1,1.41,1.19-.81.46,1,1.9,1.71-.77.89-2.43a8.58,8.58,0,0,0,2.77.94l1.4,2.55-.22,0,.28.15.46.83.87-.15.67.34,1.71-.77-1.17-3.82a5.53,5.53,0,0,0,1.36-1.37l1.94,1.81,1.71-.78.51-2.18.52-2.23Zm-5.31-.69c-.58,3.18-3.25,3.94-5.89,1.87a10.94,10.94,0,0,1-3.85-9.07c.39-3.2,2.87-4.39,5.61-2.5A10.69,10.69,0,0,1,291.15,133.43Z" transform="translate(-39.78 -100.82)"/><path class="cls-62" d="M294.75,134.89a18.67,18.67,0,0,0-.57-4.24l2.49-1.64-1.18-2.75-1.19-2.75-3,.45a19.39,19.39,0,0,0-2.71-3.39l.1-4-2-1.24-1.95-1.2-1,3.3a6.51,6.51,0,0,0-2.84-.32L279,113.68l-1.4.85-1.34.83,1.15,3.71a7.58,7.58,0,0,0-1.31,2.46l-2.38-1.15-.19,2.07-.18,2,2.22,2.23a19.14,19.14,0,0,0,.64,3.61l-1.57,1.31.92,2.2.93,2.2,2.09-.08a21.09,21.09,0,0,0,2.19,3.05l0,3.1,1.62,1.37,1.67,1.4.89-2.43a8.35,8.35,0,0,0,2.77.94l1.92,3.52,1.6-.29,1.65-.3-1.17-3.82a6,6,0,0,0,1.83-2.11l3.18,1.78.51-2.18.52-2.24Zm-11.2,1.19a11,11,0,0,1-3.86-9.08c.4-3.2,2.88-4.39,5.61-2.49a10.66,10.66,0,0,1,4.14,9.69C288.86,137.38,286.19,138.15,283.55,136.08Z" transform="translate(-39.78 -100.82)"/><path class="cls-63" d="M287.31,163.33a14.13,14.13,0,0,0-.41-3l1.79-1.18-.85-2-.85-2-2.15.32a14.23,14.23,0,0,0-1.95-2.43l.07-2.86-1.43-.89-1.4-.87-1.23.56.49,1.3.2,0-.16.53a4.92,4.92,0,0,0-2-.23L276,148.1l-.15.1,0-.1-1.1.56.06.16-.8.49.83,2.66a5.62,5.62,0,0,0-.94,1.77l-1.71-.83-1.23.56,1.1.85v.08l-.13,1.46,1.59,1.59a14.06,14.06,0,0,0,.46,2.6l-1.13.94.66,1.57.67,1.58,1.5-.06a14,14,0,0,0,1.57,2.19l0,2.23.91.77-.49.41.71,1.36,1.23-.55.63-1.74a6.29,6.29,0,0,0,2,.67l1,1.83h-.15l.2.1.33.6.62-.11.49.25,1.23-.56-.84-2.74a4.11,4.11,0,0,0,1-1l1.39,1.3,1.23-.56.36-1.56.38-1.61Zm-3.81-.5c-.42,2.28-2.34,2.83-4.23,1.35a7.88,7.88,0,0,1-2.77-6.52c.29-2.29,2.06-3.14,4-1.79A7.71,7.71,0,0,1,283.5,162.83Z" transform="translate(-39.78 -100.82)"/><path class="cls-64" d="M286.08,163.88a13.05,13.05,0,0,0-.41-3l1.79-1.18-.85-2-.85-2-2.15.33a14.36,14.36,0,0,0-1.94-2.44l.07-2.86-1.44-.89-1.4-.86-.7,2.36a4.75,4.75,0,0,0-2-.22l-1.38-2.47-1,.61-1,.59.84,2.67a5.39,5.39,0,0,0-.95,1.76l-1.71-.82-.13,1.49-.13,1.45,1.59,1.6a14,14,0,0,0,.46,2.59l-1.13.94.67,1.58.66,1.58,1.5-.06a15.8,15.8,0,0,0,1.57,2.19l0,2.22,1.16,1,1.2,1,.63-1.74a6.41,6.41,0,0,0,2,.68l1.37,2.52,1.15-.21,1.19-.21-.84-2.74a4.47,4.47,0,0,0,1.31-1.52l2.28,1.28.36-1.57.38-1.6Zm-8,.85a7.86,7.86,0,0,1-2.77-6.51c.29-2.3,2.06-3.15,4-1.79a7.67,7.67,0,0,1,3,6.95C281.85,165.67,279.93,166.22,278,164.73Z" transform="translate(-39.78 -100.82)"/><path class="cls-11" d="M316.47,251.52c0-.08,0-.16,0-.24s0-.16,0-.24v-5.35l-2.09,0c-4-5.08-13.23-8.64-24-8.64-10.45,0-19.44,3.35-23.61,8.2l-2.5,0v6.63h.05c.53,7.61,12,13.7,26.06,13.7s25.53-6.09,26.06-13.7h0Z" transform="translate(-39.78 -100.82)"/><ellipse class="cls-12" cx="250.6" cy="144.38" rx="26.11" ry="14.25"/><line class="cls-65" x1="156.38" y1="188.18" x2="162.89" y2="184.4"/><line class="cls-65" x1="158.69" y1="189.49" x2="165.2" y2="185.71"/><line class="cls-65" x1="161.01" y1="190.81" x2="167.52" y2="187.03"/><line class="cls-65" x1="163.32" y1="192.12" x2="169.83" y2="188.34"/><line class="cls-65" x1="165.63" y1="193.43" x2="172.14" y2="189.65"/><line class="cls-65" x1="167.94" y1="194.74" x2="174.45" y2="190.96"/><line class="cls-65" x1="170.26" y1="196.05" x2="176.77" y2="192.27"/><line class="cls-65" x1="172.57" y1="197.36" x2="179.08" y2="193.58"/><line class="cls-65" x1="174.88" y1="198.67" x2="181.39" y2="194.89"/><line class="cls-65" x1="177.19" y1="199.99" x2="183.71" y2="196.21"/><line class="cls-65" x1="179.51" y1="201.3" x2="186.02" y2="197.52"/><line class="cls-65" x1="181.82" y1="202.61" x2="188.33" y2="198.83"/><line class="cls-65" x1="184.13" y1="203.92" x2="190.64" y2="200.14"/><line class="cls-65" x1="186.44" y1="205.23" x2="192.96" y2="201.45"/><line class="cls-65" x1="188.76" y1="206.54" x2="195.27" y2="202.76"/><line class="cls-65" x1="191.07" y1="207.85" x2="197.58" y2="204.07"/><line class="cls-65" x1="193.38" y1="209.17" x2="199.89" y2="205.39"/><line class="cls-65" x1="195.7" y1="210.48" x2="202.21" y2="206.7"/><line class="cls-65" x1="198.01" y1="211.79" x2="204.52" y2="208.01"/><line class="cls-65" x1="200.32" y1="213.1" x2="206.83" y2="209.32"/><line class="cls-65" x1="202.63" y1="214.41" x2="209.15" y2="210.63"/><line class="cls-65" x1="204.95" y1="215.72" x2="211.46" y2="211.94"/><line class="cls-65" x1="207.26" y1="217.04" x2="213.77" y2="213.26"/><line class="cls-65" x1="209.57" y1="218.35" x2="216.08" y2="214.57"/><line class="cls-65" x1="211.88" y1="219.66" x2="218.4" y2="215.88"/><line class="cls-65" x1="214.2" y1="220.97" x2="220.71" y2="217.19"/><line class="cls-65" x1="216.51" y1="222.28" x2="223.02" y2="218.5"/><line class="cls-65" x1="218.82" y1="223.59" x2="225.33" y2="219.81"/><line class="cls-65" x1="221.14" y1="224.9" x2="227.65" y2="221.12"/><line class="cls-65" x1="223.45" y1="226.22" x2="229.96" y2="222.44"/><line class="cls-65" x1="225.76" y1="227.53" x2="232.27" y2="223.75"/><line class="cls-65" x1="228.07" y1="228.84" x2="234.59" y2="225.06"/><line class="cls-65" x1="230.39" y1="230.15" x2="236.9" y2="226.37"/><line class="cls-65" x1="232.7" y1="231.46" x2="239.21" y2="227.68"/><line class="cls-65" x1="235.01" y1="232.77" x2="241.52" y2="228.99"/><line class="cls-65" x1="237.32" y1="234.08" x2="243.84" y2="230.3"/><line class="cls-65" x1="239.64" y1="235.4" x2="246.15" y2="231.62"/><line class="cls-65" x1="241.95" y1="236.71" x2="248.46" y2="232.93"/><line class="cls-65" x1="244.26" y1="238.02" x2="250.77" y2="234.24"/><line class="cls-65" x1="246.58" y1="239.33" x2="253.09" y2="235.55"/><line class="cls-65" x1="248.89" y1="240.64" x2="255.4" y2="236.86"/><line class="cls-65" x1="251.2" y1="241.95" x2="257.71" y2="238.17"/><polygon class="cls-66" points="332.17 234.81 332.17 213.48 356.86 227.73 356.86 248.98 332.17 234.81"/><polygon class="cls-67" points="331.11 235.36 331.11 214.03 355.8 228.28 355.8 249.53 331.11 235.36"/><polygon class="cls-68" points="332.65 234.47 332.65 216.7 354.26 229.17 354.26 246.88 332.65 234.47"/><polygon class="cls-67" points="355.8 249.53 356.86 248.98 356.86 227.73 355.8 228.28 355.8 249.53"/><polygon class="cls-69" points="355.8 228.28 356.86 227.73 332.17 213.48 331.11 214.03 355.8 228.28"/><polygon class="cls-67" points="331.11 235.36 312.64 246.02 337.26 260.23 355.8 249.53 331.11 235.36"/><path class="cls-69" d="M361.21,343.54,383,355.82l-.71.41a1.48,1.48,0,0,1-1.33,0l-20.22-11.67a.41.41,0,0,1,0-.77Z" transform="translate(-39.78 -100.82)"/><polygon class="cls-69" points="343.94 254.56 322.21 242.27 322.96 241.83 344.78 254.11 343.94 254.56"/><polygon class="cls-69" points="346.32 253.23 345.56 253.67 323.75 241.39 324.5 240.95 346.32 253.23"/><polygon class="cls-69" points="347.85 252.34 347.09 252.78 325.28 240.5 326.03 240.06 347.85 252.34"/><polygon class="cls-69" points="349.38 251.46 348.63 251.9 326.82 239.62 327.56 239.18 349.38 251.46"/><polygon class="cls-69" points="350.92 250.57 350.16 251.01 328.34 238.73 329.1 238.29 350.92 250.57"/><path class="cls-69" d="M391.82,350.74l-.35.2-21.82-12.27.57-.33a1.5,1.5,0,0,1,1.34,0L391.82,350C392.19,350.19,392.19,350.54,391.82,350.74Z" transform="translate(-39.78 -100.82)"/><polygon class="cls-69" points="312.64 246.02 312.64 247.12 337.26 261.4 337.26 260.23 312.64 246.02"/><polygon class="cls-67" points="337.26 261.4 356.86 250.22 356.86 248.98 337.26 260.23 337.26 261.4"/><path class="cls-69" d="M370.25,353.55a.34.34,0,0,1-.19-.05l-4.88-2.66a.39.39,0,0,1-.15-.52.38.38,0,0,1,.52-.15l4.88,2.66a.38.38,0,0,1,.16.52A.39.39,0,0,1,370.25,353.55Z" transform="translate(-39.78 -100.82)"/><polygon class="cls-70" points="341.88 222.03 347.06 242.74 354.06 246.76 354.26 229.17 341.88 222.03"/><polygon class="cls-71" points="378.38 119.95 378.38 137.4 367.39 143.74 367.39 126.29 378.38 119.95"/><polygon class="cls-72" points="367.39 143.74 364.7 142.07 364.7 124.72 367.39 126.29 367.39 143.74"/><polygon class="cls-73" points="378.38 119.95 375.68 118.38 364.7 124.72 367.39 126.29 378.38 119.95"/><polygon class="cls-41" points="384.52 123.47 384.52 140.92 373.54 147.25 373.54 129.81 384.52 123.47"/><polygon class="cls-40" points="373.54 147.25 370.85 145.59 370.85 128.24 373.54 129.81 373.54 147.25"/><polygon class="cls-42" points="384.52 123.47 381.83 121.9 370.85 128.24 373.54 129.81 384.52 123.47"/><polygon class="cls-74" points="391.36 127.42 391.36 144.87 380.38 151.21 380.38 133.76 391.36 127.42"/><polygon class="cls-75" points="380.38 151.21 377.69 149.54 377.69 132.19 380.38 133.76 380.38 151.21"/><polygon class="cls-76" points="391.36 127.42 388.67 125.85 377.69 132.19 380.38 133.76 391.36 127.42"/><polygon class="cls-33" points="397.68 131.06 397.68 148.51 386.7 154.84 386.7 137.4 397.68 131.06"/><polygon class="cls-27" points="386.7 154.84 384.01 153.18 384.01 135.83 386.7 137.4 386.7 154.84"/><polygon class="cls-10" points="397.68 131.06 394.99 129.49 384.01 135.83 386.7 137.4 397.68 131.06"/><path class="cls-77" d="M427.87,306a8.85,8.85,0,0,0-8,0l-8.5,4.91c-2.19,1.26-2.19,3.33,0,4.6l24.94,14.4a8.85,8.85,0,0,0,8,0l8.5-4.91c2.19-1.27,2.19-3.33,0-4.6Z" transform="translate(-39.78 -100.82)"/><path class="cls-78" d="M427.87,304.94a8.85,8.85,0,0,0-8,0l-8.5,4.91c-2.19,1.26-2.19,3.33,0,4.6l24.94,14.4a8.85,8.85,0,0,0,8,0l8.5-4.91c2.19-1.27,2.19-3.33,0-4.6Z" transform="translate(-39.78 -100.82)"/><path class="cls-5" d="M411.41,313l24.94,14.4a8.79,8.79,0,0,0,8,0l8.5-4.91c2.19-1.26,2.19-3.33,0-4.59l-.67-.39-24.27-14a8.82,8.82,0,0,0-8,0l-7,4.06-1.46.84C409.22,309.68,409.22,311.74,411.41,313Z" transform="translate(-39.78 -100.82)"/><polygon class="cls-68" points="388.14 203.61 411.64 217.18 396.83 225.66 373.33 212.09 388.14 203.61"/><path class="cls-68" d="M416.58,308.67a.27.27,0,0,0,.12,0l3.27-1.89a.23.23,0,0,0,.08-.31.23.23,0,0,0-.31-.09l-3.27,1.89a.24.24,0,0,0-.09.32A.23.23,0,0,0,416.58,308.67Z" transform="translate(-39.78 -100.82)"/><ellipse class="cls-68" cx="381.33" cy="205.01" rx="0.66" ry="0.49"/><path class="cls-68" d="M416.67,306.32c0,.13.16.24.34.24s.34-.11.34-.24-.15-.25-.34-.25S416.67,306.18,416.67,306.32Z" transform="translate(-39.78 -100.82)"/><path class="cls-78" d="M446.07,323c0-.59.64-1.07,1.42-1.07a1.11,1.11,0,1,1,0,2.15A1.29,1.29,0,0,1,446.07,323Zm.23,0c0,.47.53.85,1.19.85s1.18-.38,1.18-.85-.53-.84-1.18-.84S446.3,322.58,446.3,323Z" transform="translate(-39.78 -100.82)"/><path class="cls-79" d="M412.87,307.57l36.31,11.71,3-1.76-24.27-14a8.82,8.82,0,0,0-8,0Z" transform="translate(-39.78 -100.82)"/><polygon class="cls-20" points="302.96 213.48 287.06 222.66 247.17 199.63 258.32 193.21 271.13 194.16 274.19 204.08 302.44 204.65 302.96 213.48"/><ellipse class="cls-20" cx="280.85" cy="193.14" rx="4.14" ry="2.33"/><path class="cls-46" d="M308.27,255.58v6.08a39.43,39.43,0,0,1-16.88,3.87l-.12-6.08-.89-14.25Z" transform="translate(-39.78 -100.82)"/><path class="cls-9" d="M308.27,255.58v6.08a39.43,39.43,0,0,1-16.88,3.87l-.12-6.08A39.48,39.48,0,0,0,308.27,255.58Z" transform="translate(-39.78 -100.82)"/><ellipse class="cls-2" cx="372.4" cy="172.72" rx="12.8" ry="4.33"/><polygon class="cls-80" points="375.48 96.01 370.82 98.24 370.46 96.9 369.95 95.02 369.79 94.44 370.97 93.86 372.57 93.08 374.05 92.37 375.48 96.01"/><polygon class="cls-81" points="372.57 93.08 370.46 96.9 369.95 95.02 370.08 94.59 370.97 93.86 372.57 93.08"/><path class="cls-80" d="M402.7,202.52l-2.43-2.64-1.43-3.47s-.84-.76-1.11-.43,1,5.56,1,5.56l-1.94.77s0,.38.18.47,2.25.86,2.25.86l1.75.72Z" transform="translate(-39.78 -100.82)"/><path class="cls-51" d="M408.6,206.19,407.06,212,404,208.39l-3.46-4.12c.33-1.29,1.95-2,1.95-2l3.07,2.27Z" transform="translate(-39.78 -100.82)"/><polygon class="cls-82" points="355.96 92.77 355.96 81.67 343.11 89.09 343.11 100.16 355.96 92.77"/><polygon class="cls-67" points="356.51 93.06 356.51 81.95 343.66 89.38 343.66 100.44 356.51 93.06"/><polygon class="cls-68" points="355.71 92.59 355.71 83.34 344.46 89.84 344.46 99.06 355.71 92.59"/><polygon class="cls-67" points="343.66 100.44 343.11 100.16 343.11 89.09 343.66 89.38 343.66 100.44"/><polygon class="cls-69" points="343.66 89.38 343.11 89.09 355.96 81.67 356.51 81.95 343.66 89.38"/><polygon class="cls-67" points="356.51 93.06 366.13 98.61 353.31 106.02 343.66 100.44 356.51 93.06"/><path class="cls-69" d="M401.33,197.72,390,204.11l.37.21a.76.76,0,0,0,.69,0l10.53-6.07c.19-.11.19-.29,0-.41Z" transform="translate(-39.78 -100.82)"/><polygon class="cls-69" points="349.83 103.06 361.15 96.66 360.76 96.43 349.39 102.83 349.83 103.06"/><polygon class="cls-69" points="348.59 102.37 348.99 102.59 360.35 96.2 359.96 95.97 348.59 102.37"/><polygon class="cls-69" points="347.8 101.91 348.19 102.13 359.55 95.74 359.16 95.51 347.8 101.91"/><polygon class="cls-69" points="347 101.44 347.39 101.67 358.75 95.28 358.36 95.05 347 101.44"/><polygon class="cls-69" points="346.2 100.98 346.59 101.21 357.96 94.82 357.56 94.59 346.2 100.98"/><path class="cls-69" d="M385.39,201.47l.18.1,11.36-6.39-.29-.17a.78.78,0,0,0-.7,0l-10.55,6.06C385.19,201.18,385.19,201.36,385.39,201.47Z" transform="translate(-39.78 -100.82)"/><polygon class="cls-69" points="366.13 98.61 366.13 99.19 353.31 106.62 353.31 106.02 366.13 98.61"/><polygon class="cls-67" points="353.31 106.62 343.11 100.8 343.11 100.16 353.31 106.02 353.31 106.62"/><path class="cls-69" d="M396.62,202.93a.17.17,0,0,0,.1,0l2.54-1.38a.2.2,0,0,0,.08-.27.19.19,0,0,0-.27-.08l-2.54,1.38a.2.2,0,0,0-.08.28A.19.19,0,0,0,396.62,202.93Z" transform="translate(-39.78 -100.82)"/><polygon class="cls-70" points="350.9 86.12 348.21 96.91 344.56 99 344.46 89.84 350.9 86.12"/><polygon class="cls-83" points="370.7 123.3 372 146.34 374.59 171.03 377.74 171.15 377.59 143.09 379.51 129.44 379.45 121.31 370.75 121.76 370.7 123.3"/><path class="cls-83" d="M414.81,271.19s.15.58-1.58.64-4.37.14-3.3,1.54,5.42.7,6.47.54l0,.56,1.33-.06a7,7,0,0,0-.31-3.06Z" transform="translate(-39.78 -100.82)"/><path class="cls-80" d="M391.7,210.11,390,206.62l-4.28-4s-.12-.69.32-.84,6.25,3.94,6.25,3.94l1.53-1.68s.39.11.41.37,0,2.62,0,2.62l.22,1.33Z" transform="translate(-39.78 -100.82)"/><polygon class="cls-84" points="368.83 105.37 367.29 111.19 364.24 107.56 365.8 103.77 368.83 105.37"/><path class="cls-83" d="M405.9,225.8l1.3,23,2.59,24.69,3.16.12.51-28.16s5.79-10.09,6.55-13.85c.39-1.92-.34-7.83-.34-7.83l-13.71.45Z" transform="translate(-39.78 -100.82)"/><path class="cls-80" d="M406.3,184.46s-.61,6-.51,7,1.88,4.71,3,4.9,5.76-3.85,5.76-3.85l-.86-9.23-5.51-.66Z" transform="translate(-39.78 -100.82)"/><path class="cls-85" d="M402.31,180.27l2,3.06,2,1.13L411,183l.23.57.86,3.79s.56-.8,1.28-.57.86,3,.38,3.37a3,3,0,0,1-1.35.39l.7,2,1.81,1.07,2.73-6.08-.63-4.88L413.55,179l-5.84.81-2.73.66Z" transform="translate(-39.78 -100.82)"/><path class="cls-51" d="M405.31,227.12l15.16-.73c-.1-2.88-.94-25.93-1.28-27.12-.43-1.46-2.89-2.56-3.93-2.44L411,198a6.77,6.77,0,0,0-4.82,5.29c-1.26,5-2.28,11.73-2.28,11.73l-9.66-7.1a6.16,6.16,0,0,0-2.5,2.23c-.18.38,0,.44,0,.44l11.48,12,2.12,1.1Z" transform="translate(-39.78 -100.82)"/><path class="cls-83" d="M410,272.79s.2.57-1.53.75-4.34.47-3.17,1.79,5.46.29,6.49.06l.07.55,1.33-.16a7.05,7.05,0,0,0-.54-3Z" transform="translate(-39.78 -100.82)"/><path class="cls-84" d="M406.57,223a14.46,14.46,0,0,0,3.09-4.88c.7-2.43,1.86-11.06,1.86-11.06l-.23,8.65A15.72,15.72,0,0,1,406.57,223Z" transform="translate(-39.78 -100.82)"/><ellipse class="cls-2" cx="302.54" cy="328.03" rx="14.3" ry="4.84"/><path class="cls-83" d="M330.07,374.89s-.33,5.35-.18,6.94,3.81,10.49,3.73,14.57.51,26.07.51,26.07a6.26,6.26,0,0,0,3.6,0s3.29-20.26,3.23-20.6,0-9.28,0-9.28L343.54,406s2.19,12.95,1.87,16.23a8.27,8.27,0,0,0,3.4.22s2.16-25,1.83-28.41-1.27-18.7-1.27-18.7l-18.87-1.6Z" transform="translate(-39.78 -100.82)"/><path class="cls-80" d="M360.32,352l2-2.47s.21-3.72,1-3.65.6,1.14.87,1.64,1.16-.16,1.83-.87,2.09-2.14,2.57-2.11,0,1.69-.37,2.75-4.9,7.25-4.9,7.25l-3.63-1.1Z" transform="translate(-39.78 -100.82)"/><polygon class="cls-80" points="304.64 225.37 305.98 226.75 307 227.86 307.62 233.38 305.98 238.07 303.94 239.55 302.66 229.35 304.64 225.37"/><path class="cls-86" d="M344.89,341.59a9,9,0,0,1,7.1,7.51c1.19,6.64,1.94,10.53,1.94,10.53l6.39-7.65a3.58,3.58,0,0,1,3.41,1.82l-8.54,13s-2.43,1.43-4.32-1.81a29.88,29.88,0,0,0-2.5-3.9l.91,15.34s-7.94,3.45-19.21-1.54l.43-25.14s-.16-8.9,4.7-9.31A28.21,28.21,0,0,1,344.89,341.59Z" transform="translate(-39.78 -100.82)"/><path class="cls-87" d="M337.88,325.55a4.88,4.88,0,0,1,4-1.7c2.28.34,4.07,1.74,4.25,4.19s1,6,0,7.35a6.72,6.72,0,0,0-1.44,4.39c.15,1.25,2.82,8.17,1,10.7s-5.33,5.55-10.32,4-6.18-8.93-4.52-11.79,4.19-4,3.95-7S334.79,324.72,337.88,325.55Z" transform="translate(-39.78 -100.82)"/><polygon class="cls-83" points="294.36 321.64 294.29 325 294.5 326.83 294.72 330.45 295.59 330.45 295.9 325.85 296.49 325.34 298.51 328.56 300.49 328.82 303.22 327.57 303.76 325.85 303.76 325.34 301.01 324.83 297.95 321.38 295.24 321.24 294.36 321.64"/><polygon class="cls-83" points="305.62 321.32 305.56 324.68 305.76 326.51 305.99 330.13 306.86 330.13 307.16 325.53 307.76 325.02 309.78 328.24 311.76 328.5 314.49 327.25 315.03 325.53 315.03 325.02 312.28 324.51 309.03 321.6 306.51 320.92 305.62 321.32"/><path class="cls-83" d="M179.57,288.93a9.12,9.12,0,0,1-4.64,9.17c-5.69,3.23-8.52,20.42-9.29,25.53,0,0-3.45,1.19-4.46-.16s.85-22.2,2.19-26.62c0,0-3.4,3.12-5.05,10.37l-2,12.7s-3.23,1.48-4.89-.73c0,0,1.14-24.15,2.68-26.27s9.89-9.14,9.89-9.14l15.61,3.61Z" transform="translate(-39.78 -100.82)"/><path class="cls-83" d="M151.39,319.19a7.23,7.23,0,0,1-2.35,2.07c-1.14.45-4.2,2.71-4.13,3.82s3.85.65,5.39-.22a15.35,15.35,0,0,1,2.8-1.57l.18.39a7.44,7.44,0,0,0,2.66,0,15.14,15.14,0,0,0,.34-3.76l-1.47-.25Z" transform="translate(-39.78 -100.82)"/><path class="cls-83" d="M161.18,323.47s-.71,3.54-1.6,4.44-2.07,2.86-1.6,3.41,1.67,1.4,3.26-.28a16.57,16.57,0,0,0,3.13-4l.14.69,1.27-.93a13.94,13.94,0,0,0-.14-3.19l-2.43-1.3Z" transform="translate(-39.78 -100.82)"/><path class="cls-60" d="M166.24,261.35s-2.16.6-5,12l-1,4.16-10.31-.71a7.69,7.69,0,0,0-.06,2.58L161,283.2S167.6,270.84,166.24,261.35Z" transform="translate(-39.78 -100.82)"/><path class="cls-88" d="M166.67,264.39s-7.49,9.31-5.15,17.25l.6,1.22,4-11Z" transform="translate(-39.78 -100.82)"/><path class="cls-60" d="M180.45,271.45s.06-5.06-3.11-7.32a16.21,16.21,0,0,0-9.77-3.08c-1.48.14-3,.66-4,4.29s-1.52,20.1-1.52,20.1,7.27,3.39,12.6,3.86a7.2,7.2,0,0,0,5-.8Z" transform="translate(-39.78 -100.82)"/><path class="cls-88" d="M176.41,267.85s-.88,1.36-1.2,5.66-.8,11.37-.8,11.37l3.66,1.44Z" transform="translate(-39.78 -100.82)"/><polygon class="cls-67" points="122.96 190.43 131.3 185.02 131.32 184.36 122.96 178.96 122.96 190.43"/><polygon class="cls-69" points="122.47 190.11 131.32 184.36 131.3 185.02 122.5 190.69 122.47 190.11"/><path class="cls-69" d="M162.74,287.15l1.61,1.08-1.27.8c-.19.11-.34,0-.34-.23Z" transform="translate(-39.78 -100.82)"/><polygon class="cls-69" points="125.56 186.79 124.87 187.22 122.96 185.95 122.96 185.06 125.56 186.79"/><polygon class="cls-69" points="126.33 186.31 125.85 186.61 122.96 184.68 122.96 184.06 126.33 186.31"/><polygon class="cls-69" points="127.1 185.82 126.63 186.12 122.96 183.68 122.96 183.07 127.1 185.82"/><polygon class="cls-69" points="128.08 185.21 127.4 185.64 127.39 185.64 122.96 182.69 122.96 181.8 128.08 185.21"/><path class="cls-69" d="M168.6,285.57l-.45.28-5.41-3.61v-.33c0-.24.15-.34.34-.22l5.52,3.46A.23.23,0,0,1,168.6,285.57Z" transform="translate(-39.78 -100.82)"/><polygon class="cls-89" points="110.01 182.67 110.01 170.6 122.47 178.65 122.47 190.72 110.01 182.67"/><polygon class="cls-69" points="122.47 190.72 122.96 190.43 122.96 178.35 122.47 178.65 122.47 190.72"/><polygon class="cls-67" points="110.01 170.6 122.47 178.65 122.96 178.35 110.5 170.31 110.01 170.6"/><path class="cls-90" d="M157.19,281.48c0,1.12-.53,2-1.17,2s-1.17-.91-1.17-2,.52-2,1.17-2S157.19,280.36,157.19,281.48Z" transform="translate(-39.78 -100.82)"/><path class="cls-80" d="M174.88,263.45c-4.4,1.72-5.73.55-5.73.55l0-.46L168.9,260l2.63-.26,2.12-.21.15.5.17.56Z" transform="translate(-39.78 -100.82)"/><path class="cls-80" d="M166.18,286.32l-4,.42a2.46,2.46,0,0,0-1.53,1.25c-.42,1,2,1.54,2.45,2s3.88-.44,3.88-.44Z" transform="translate(-39.78 -100.82)"/><path class="cls-80" d="M166.32,286.32s-1.58-1.52-1.89-1.52-.08,2.06.66,2.13Z" transform="translate(-39.78 -100.82)"/><path class="cls-80" d="M149.79,279.18a2.59,2.59,0,0,0-.38,1.67,3.14,3.14,0,0,0,.86,2.3c.43.36.91-.86.44-2S149.79,279.18,149.79,279.18Z" transform="translate(-39.78 -100.82)"/><path class="cls-60" d="M177.09,266.34a12.8,12.8,0,0,0-1.48,6.31c-.08,4.15,0,11.44,0,11.44l-9.29,2.23a24.27,24.27,0,0,0,.23,3.18l11.12.46s2.09-.2,2.78-1.21,1.65-17.43-.8-22C179.65,266.77,178.39,264.7,177.09,266.34Z" transform="translate(-39.78 -100.82)"/><polygon class="cls-81" points="134.63 159.25 134.2 159.74 132.44 161.72 129.34 162.71 129.12 159.14 131.75 158.89 134.02 159.18 134.63 159.25"/><polygon class="cls-80" points="127.23 148.1 127.23 154.36 128.77 161.21 130.59 161.54 133.81 160.6 135.73 157.46 135.97 149.03 130.24 146.39 127.23 148.1"/><path class="cls-85" d="M167,248.92l-1.62-1.17-.76-1.55s3.25-.46,3.46-.91,5.34-2.47,5.34-2.47l3.7,4.72.51,8-2.12,2.8-1.13.38V256a4.06,4.06,0,0,0,.9-1.25c.35-.79.18-3-.65-2.74s-1.63-2.32-1.63-2.32l-3.87-1Z" transform="translate(-39.78 -100.82)"/><path class="cls-2" d="M178.07,298.34c-.59.76-1.82,2.07-3.14,4a26.7,26.7,0,0,0-4.4,10.25L164.3,309h0c.28-4.24.86-9.12,2-10.63L164.81,297s-3.74,2.6-5.29,9.19l-3.51-2,1.73-11.25.77-.1,10.39-1.32,10.52-.27S179.67,296.27,178.07,298.34Z" transform="translate(-39.78 -100.82)"/><path class="cls-5" d="M322.26,172.88a1.24,1.24,0,0,1-.24.56,1,1,0,0,1-.44.34,1.27,1.27,0,0,1-.59.08,1.86,1.86,0,0,1-.66-.2l-.41-.21a2,2,0,0,1-.58-.41,2.43,2.43,0,0,1-.43-.54,2.1,2.1,0,0,1-.26-.62,1.88,1.88,0,0,1,0-.62l1,.5a1.11,1.11,0,0,0,.12.43.71.71,0,0,0,.34.32l.35.17a.67.67,0,0,0,.28.08.56.56,0,0,0,.23,0,.55.55,0,0,0,.18-.16.58.58,0,0,0,.1-.24l.66-3.9,1,.48Z" transform="translate(-39.78 -100.82)"/><path class="cls-5" d="M323,171.89a1.55,1.55,0,0,1,.21-.45.87.87,0,0,1,.35-.28,1.06,1.06,0,0,1,.51-.08,1.86,1.86,0,0,1,.66.19l.5.24a2,2,0,0,1,.64.45,2.13,2.13,0,0,1,.61,1.17,1.68,1.68,0,0,1,0,.59l-.47,2.84-2.39-1.23a1.89,1.89,0,0,1-.48-.36,1.71,1.71,0,0,1-.46-1,1.57,1.57,0,0,1,0-.53,1.34,1.34,0,0,1,.15-.44.71.71,0,0,1,.29-.28.72.72,0,0,1,.4-.08,1.15,1.15,0,0,1,.5.14l1.43.71,0-.09c0-.1,0-.2,0-.29a.6.6,0,0,0-.06-.27.66.66,0,0,0-.17-.25,1.6,1.6,0,0,0-.36-.23l-.21-.1a.91.91,0,0,0-.49-.14.32.32,0,0,0-.24.21Zm.6,2a.56.56,0,0,0,0,.37.4.4,0,0,0,.18.2l1.39.71.14-.86-1.39-.7a.22.22,0,0,0-.21,0A.39.39,0,0,0,323.58,173.92Z" transform="translate(-39.78 -100.82)"/><path class="cls-5" d="M329.22,173.46a2.5,2.5,0,0,1,.64.44,2.4,2.4,0,0,1,.44.58,1.94,1.94,0,0,1,.24.66,2.3,2.3,0,0,1,0,.74l-.19,1.2a1.52,1.52,0,0,1-.22.61.87.87,0,0,1-.39.35,1.1,1.1,0,0,1-.55.07,2.14,2.14,0,0,1-.68-.24l-.34-.18a2.72,2.72,0,0,1-.64-.45,2.4,2.4,0,0,1-.44-.58,2.22,2.22,0,0,1-.23-.67,2.34,2.34,0,0,1,0-.7l.2-1.17v-.07l.49-3,1,.47-.26,1.61a1.79,1.79,0,0,1,.67.21Zm-.5.83a.42.42,0,0,0-.68.32l-.19,1.15a.92.92,0,0,0,.48.94l.34.18a.5.5,0,0,0,.47,0,.46.46,0,0,0,.24-.38l.18-1.13a.87.87,0,0,0-.09-.55.88.88,0,0,0-.41-.4Z" transform="translate(-39.78 -100.82)"/><path class="cls-5" d="M333.3,175.48a2.59,2.59,0,0,1,1.09,1.05,2.28,2.28,0,0,1,.23.68,2.42,2.42,0,0,1,0,.76l-.19,1.24a1.73,1.73,0,0,1-.21.63,1,1,0,0,1-.4.37,1.09,1.09,0,0,1-.55.07,2.14,2.14,0,0,1-.68-.24l-.33-.18a2.59,2.59,0,0,1-.64-.47,2.5,2.5,0,0,1-.45-.59,2.44,2.44,0,0,1-.23-.69,2.24,2.24,0,0,1,0-.73l.19-1.21v-.07l.49-3.1,1,.48-.26,1.66a1.9,1.9,0,0,1,.68.21Zm-.49.87a.48.48,0,0,0-.46,0,.49.49,0,0,0-.23.37l-.19,1.18a.95.95,0,0,0,.49,1l.33.17a.51.51,0,0,0,.47.05.5.5,0,0,0,.24-.4l.18-1.17a1,1,0,0,0-.09-.57.88.88,0,0,0-.41-.4Z" transform="translate(-39.78 -100.82)"/><path class="cls-5" d="M335.2,178.22a1.45,1.45,0,0,1,.22-.57,1.15,1.15,0,0,1,.39-.37.93.93,0,0,1,.5-.13,1,1,0,0,1,.52.12l1,.49a1.77,1.77,0,0,1,.56.46,2.26,2.26,0,0,1,.37.61,3.11,3.11,0,0,1,.19.68,2.17,2.17,0,0,1,0,.62l-.18,1.21L336,179.88l0,.25a.79.79,0,0,0,.1.56,1.19,1.19,0,0,0,.42.38l2,1.06-.16,1-2.17-1.2a1.85,1.85,0,0,1-.52-.41,2.63,2.63,0,0,1-.39-.57,2.23,2.23,0,0,1-.22-.66,1.83,1.83,0,0,1,0-.7Zm1,.8,1.74.91v0a1.46,1.46,0,0,0-.08-.69.89.89,0,0,0-.42-.47l-.52-.28a.5.5,0,0,0-.26,0,.39.39,0,0,0-.21.08.67.67,0,0,0-.16.2.66.66,0,0,0-.09.29Z" transform="translate(-39.78 -100.82)"/><path class="cls-5" d="M340.7,180.33a1,1,0,0,1,.37-.22,1.86,1.86,0,0,1,.48-.05,2.06,2.06,0,0,1,.53.1,2.87,2.87,0,0,1,.55.22l.11.06-.17,1.2-.11-.06a1.84,1.84,0,0,0-.64-.2,1.92,1.92,0,0,0-.64.05,1.26,1.26,0,0,0-.5.27.78.78,0,0,0-.25.46l-.29,2-1.05-.57.72-4.83,1,.55Z" transform="translate(-39.78 -100.82)"/><path class="cls-5" d="M347.19,183.25a1.42,1.42,0,0,1-.19.57,1.22,1.22,0,0,1-.37.38,2.22,2.22,0,0,1,.3,1.44l-.06.41a2.43,2.43,0,0,1-.2.7,1,1,0,0,1-.37.4.83.83,0,0,1-.47.1,1.4,1.4,0,0,1-.57-.2l-2.6-1.47.95-6.58,2.52,1.32a1.81,1.81,0,0,1,.54.4,2.22,2.22,0,0,1,.39.57,2.56,2.56,0,0,1,.21.68,3,3,0,0,1,0,.73Zm-1.26,2a1.09,1.09,0,0,0,0-.31,1.14,1.14,0,0,0-.09-.3.82.82,0,0,0-.16-.25.67.67,0,0,0-.2-.18L344,183.4l-.22,1.52,1.43.8a.46.46,0,0,0,.22.06.37.37,0,0,0,.21-.06.39.39,0,0,0,.15-.16.88.88,0,0,0,.09-.26Zm-1.73-2.95,1.36.73a.49.49,0,0,0,.22.06.66.66,0,0,0,.2-.06.44.44,0,0,0,.16-.17.66.66,0,0,0,.08-.26v-.1a.81.81,0,0,0,0-.31.75.75,0,0,0-.09-.29.93.93,0,0,0-.15-.26.52.52,0,0,0-.2-.17l-1.37-.73Z" transform="translate(-39.78 -100.82)"/><path class="cls-5" d="M349.64,184a2.26,2.26,0,0,1,.64.5A2.73,2.73,0,0,1,351,186a3,3,0,0,1,0,.84l-.19,1.4a2,2,0,0,1-.22.71.87.87,0,0,1-.94.51,2,2,0,0,1-.68-.25l-.34-.2a2.48,2.48,0,0,1-.64-.51,2.66,2.66,0,0,1-.45-.66,2.86,2.86,0,0,1-.23-.77,3.14,3.14,0,0,1,0-.81l.19-1.37a2.2,2.2,0,0,1,.21-.71,1,1,0,0,1,.39-.41,1.08,1.08,0,0,1,.55-.1,1.79,1.79,0,0,1,.68.22Zm-.5,1a.5.5,0,0,0-.47,0,.55.55,0,0,0-.26.44l-.18,1.3a1,1,0,0,0,.11.64.93.93,0,0,0,.41.46l.34.2a.45.45,0,0,0,.47,0,.53.53,0,0,0,.25-.44l.18-1.32a1.1,1.1,0,0,0-.1-.64,1,1,0,0,0-.41-.45Z" transform="translate(-39.78 -100.82)"/><path class="cls-5" d="M353.6,189.07c.13.54.27,1.1.41,1.66s.28,1.11.41,1.66l-1-.59-.5-2.22-1,1.34-1-.59,1.49-1.92-.78-3.27,1,.55.49,2.26,1-1.44,1,.57Z" transform="translate(-39.78 -100.82)"/><path class="cls-5" d="M361.55,190.3a4.28,4.28,0,0,0-.27-.9,3.12,3.12,0,0,0-.47-.76,2.06,2.06,0,0,0-.62-.53l-2.34-1.31a1.34,1.34,0,0,0-.67-.19,1,1,0,0,0-.58.16,1.36,1.36,0,0,0-.45.47,2,2,0,0,0-.24.74l-.39,3a2.9,2.9,0,0,0,0,.88,4.28,4.28,0,0,0,.27.88,3.32,3.32,0,0,0,.47.76,2.3,2.3,0,0,0,.62.55l.05,0V194c0-.33.17-.55.23-.87a1.61,1.61,0,0,1,0-.22,1.52,1.52,0,0,1-.54-.63,1.49,1.49,0,0,1-.08-.75l.38-2.87a.84.84,0,0,1,.25-.55.43.43,0,0,1,.51,0l2.31,1.31a1,1,0,0,1,.43.54,1.42,1.42,0,0,1,.09.76l-.38,2.94a.86.86,0,0,1-.25.56.42.42,0,0,1-.51,0l-1.35-.81-.33.45-.06.57a.29.29,0,0,1,0,.09l1.61,1a1.42,1.42,0,0,0,.67.23,1,1,0,0,0,.58-.14,1.3,1.3,0,0,0,.44-.46,1.89,1.89,0,0,0,.25-.76l.39-3.1A3.17,3.17,0,0,0,361.55,190.3Z" transform="translate(-39.78 -100.82)"/><line class="cls-5" x1="316.23" y1="91.03" x2="316.2" y2="91.28"/><path class="cls-5" d="M359.82,191.12c0,.28-.24.4-.46.28a.79.79,0,0,1-.33-.74c0-.29.24-.41.46-.28A.77.77,0,0,1,359.82,191.12Z" transform="translate(-39.78 -100.82)"/><path class="cls-5" d="M358.24,190.2c0,.28-.25.4-.46.28a.82.82,0,0,1-.34-.74c0-.28.25-.4.47-.28A.79.79,0,0,1,358.24,190.2Z" transform="translate(-39.78 -100.82)"/><polygon class="cls-5" points="317.47 94.51 316.5 92.11 317.41 92.06 317.68 92.9 318.26 92.55 318.87 93.78 317.47 94.51"/></g></g></svg>