<svg id="Layer_1" data-name="Layer 1" xmlns="http://www.w3.org/2000/svg" viewBox="0 0 924.9 177.25"><defs><style>.cls-1{font-size:181.98px;font-family:DoHyeon-Regular, Do Hyeon;}.cls-1,.cls-2{fill:#15749e;}</style></defs><text class="cls-1" transform="translate(0 145.59)">JabberBox</text><path class="cls-2" d="M1014.2,530.31a38.3,38.3,0,0,0-7.73-11.55A35.49,35.49,0,0,0,995.09,511a35,35,0,0,0-14-2.82H930.49a35,35,0,0,0-14,2.82,35.49,35.49,0,0,0-11.38,7.74,38.3,38.3,0,0,0-7.73,11.55,34.78,34.78,0,0,0-2.91,14.11V596.1a34.07,34.07,0,0,0,2.91,14,38.67,38.67,0,0,0,7.73,11.47,35.46,35.46,0,0,0,11.38,7.73,34.83,34.83,0,0,0,14,2.82h1a7.81,7.81,0,0,1-.17-1.65c0-5.61,1.93-10.4,2.28-16a10.63,10.63,0,0,1-.56-3.54c-4.19,0-10-1.91-12.48-4.93a17.27,17.27,0,0,1-3.73-11.19V545.51a16.91,16.91,0,0,1,3.73-11.1,12.38,12.38,0,0,1,10.1-4.55H980.9a12.38,12.38,0,0,1,10.1,4.55,16.91,16.91,0,0,1,3.73,11.1v49.32A17.27,17.27,0,0,1,991,606a12.28,12.28,0,0,1-10.1,4.64H951.58l-5.37,10.19c0,3.2.18,6.42.2,9.63a7.85,7.85,0,0,1-.15,1.65h34.82a34.83,34.83,0,0,0,14-2.82,35.46,35.46,0,0,0,11.38-7.73,38.67,38.67,0,0,0,7.73-11.47,34.07,34.07,0,0,0,2.91-14V544.42A34.78,34.78,0,0,0,1014.2,530.31Z" transform="translate(-92.21 -483.95)"/><line class="cls-2" x1="814.5" y1="121.67" x2="814.5" y2="126.04"/><circle class="cls-2" cx="880.75" cy="74.63" r="8.62"/><circle class="cls-2" cx="846.41" cy="74.63" r="8.62"/><polygon class="cls-2" points="848.66 165.51 822.68 136.46 840.84 127 848.65 137.87 859.37 126.71 874.8 140.38 848.66 165.51"/></svg>